<svg width="48" height="48" viewBox="0 0 48 48" fill="none" xmlns="http://www.w3.org/2000/svg">
<path fill-rule="evenodd" clip-rule="evenodd" d="M6 7.5C5.17157 7.5 4.5 8.17157 4.5 9V33C4.5 33.8284 5.17157 34.5 6 34.5H42C42.8284 34.5 43.5 33.8284 43.5 33V9C43.5 8.17157 42.8284 7.5 42 7.5H6ZM1.5 9C1.5 6.51472 3.51472 4.5 6 4.5H42C44.4853 4.5 46.5 6.51472 46.5 9V33C46.5 35.4853 44.4853 37.5 42 37.5H6C3.51472 37.5 1.5 35.4853 1.5 33V9Z" fill="#21272A"/>
<path d="M28.5 42L27.75 36H20.25L19.5 42H28.5Z" fill="#21272A"/>
<path fill-rule="evenodd" clip-rule="evenodd" d="M18.7616 35.8139C18.8554 35.0633 19.4935 34.5 20.25 34.5H27.75C28.5065 34.5 29.1446 35.0633 29.2384 35.8139L29.9884 41.8139C30.0418 42.2409 29.9093 42.6702 29.6245 42.9927C29.3398 43.3153 28.9303 43.5 28.5 43.5H19.5C19.0698 43.5 18.6602 43.3153 18.3755 42.9927C18.0908 42.6702 17.9582 42.2409 18.0116 41.8139L18.7616 35.8139ZM21.5742 37.5L21.1992 40.5H26.8008L26.4258 37.5H21.5742Z" fill="#21272A"/>
<path fill-rule="evenodd" clip-rule="evenodd" d="M12 42C12 41.1716 12.6716 40.5 13.5 40.5H34.5C35.3284 40.5 36 41.1716 36 42C36 42.8284 35.3284 43.5 34.5 43.5H13.5C12.6716 43.5 12 42.8284 12 42Z" fill="#21272A"/>
<path d="M3 28.5V33C3.00223 33.795 3.31901 34.5567 3.88114 35.1189C4.44327 35.681 5.20504 35.9978 6 36H42C42.795 35.9978 43.5567 35.681 44.1189 35.1189C44.681 34.5567 44.9978 33.795 45 33V28.5H3ZM24 34.5C23.7033 34.5 23.4133 34.412 23.1666 34.2472C22.92 34.0824 22.7277 33.8481 22.6142 33.574C22.5006 33.2999 22.4709 32.9983 22.5288 32.7074C22.5867 32.4164 22.7296 32.1491 22.9393 31.9393C23.1491 31.7296 23.4164 31.5867 23.7074 31.5288C23.9983 31.4709 24.2999 31.5006 24.574 31.6142C24.8481 31.7277 25.0824 31.92 25.2472 32.1666C25.412 32.4133 25.5 32.7033 25.5 33C25.5 33.3978 25.342 33.7794 25.0607 34.0607C24.7794 34.342 24.3978 34.5 24 34.5Z" fill="#21272A"/>
<rect x="32.001" y="20.0001" width="10" height="7" fill="#21272A"/>
<path d="M25.9196 19.3726C26.3148 19.2486 26.5347 18.8277 26.4107 18.4324L24.3901 11.992C24.2661 11.5967 23.8452 11.3769 23.45 11.5009C23.0548 11.6249 22.8349 12.0458 22.9589 12.441L24.755 18.1659L19.0301 19.9619C18.6349 20.0859 18.415 20.5068 18.539 20.902C18.663 21.2973 19.0839 21.5171 19.4791 21.3931L25.9196 19.3726ZM12.1553 11.584L11.808 12.2487L25.3478 19.3217L25.6951 18.657L26.0423 17.9922L12.5025 10.9192L12.1553 11.584Z" fill="#21272A"/>
</svg>
